<svg id="Layer_1" data-name="Layer 1" xmlns="http://www.w3.org/2000/svg" viewBox="0 0 150 150"><defs><style>.cls-1{fill:#a100ff;fill-rule:evenodd;}</style></defs><path class="cls-1" d="M135.64,53.91H14.36a2.83,2.83,0,0,0-2.64,2.63v66.3a9.94,9.94,0,0,0,10.11,10.09H128.17a10.21,10.21,0,0,0,10.11-10.09V56.54A2.83,2.83,0,0,0,135.64,53.91ZM133,122.84a4.87,4.87,0,0,1-4.84,4.82H21.83A4.87,4.87,0,0,1,17,122.84V59.18H133Zm-77.78-6.09a1.62,1.62,0,0,0,1.32.44h1.32l42.25-21.13a2.66,2.66,0,0,0,1.32-2.64,2.42,2.42,0,0,0-1.32-2.2L57.87,70.09a2.77,2.77,0,0,0-2.64,0,2.42,2.42,0,0,0-1.32,2.2v42.26A2.42,2.42,0,0,0,55.23,116.75Zm4-40.06L92.64,93.42,59.19,110.59Zm71.18-59.62H19.63a7.86,7.86,0,0,0-7.91,7.87v21a2.53,2.53,0,0,0,2.64,2.63H135.64a2.53,2.53,0,0,0,2.64-2.63v-21A7.86,7.86,0,0,0,130.37,17.07Zm2.43,7L113.52,43.31h-14l20.76-21h10.1A2.86,2.86,0,0,1,132.8,24ZM57.3,22.32H71.48l-21.23,21H36.76Zm-28.14,21H17.86l21-21H50.39Zm49.23-21H92.58l-21.24,21H57.86Zm21.09,0h14.19l-21.23,21H79Zm-79.85,0H32l-15,15V24.94A2.83,2.83,0,0,1,19.63,22.32Zm101,21L133,31V43.31Z"/></svg>